Coordinates
version=1
nRows=5
nColumns=46
inDegrees=yes

Units are S.I. units (second, meters, Newtons, ...)
Angles are in degrees.

endheader
time	pelvis_tilt	pelvis_list	pelvis_rotation	pelvis_tx	pelvis_ty	pelvis_tz	bb_angle	bb_tx	bb_ty	bb_tz	hip_flexion_r	hip_adduction_r	hip_rotation_r	knee_angle_r	knee_angle_r_beta	ankle_angle_r	subtalar_angle_r	mtp_angle_r	crank_angle_r	hip_flexion_l	hip_adduction_l	hip_rotation_l	knee_angle_l	knee_angle_l_beta	ankle_angle_l	subtalar_angle_l	mtp_angle_l	crank_angle_l	lumbar_extension	lumbar_bending	lumbar_rotation	arm_flex_r	arm_add_r	arm_rot_r	elbow_flex_r	pro_sup_r	wrist_flex_r	wrist_dev_r	arm_flex_l	arm_add_l	arm_rot_l	elbow_flex_l	pro_sup_l	wrist_flex_l	wrist_dev_l
      5.00500000	    -32.76518010	      4.28795409	     -4.06328642	      0.31153822	      1.03881550	     -0.19819739	      0.00000000	      0.50000000	      0.00000000	      0.25000000	     65.85713246	     -5.04883886	      2.46970970	     57.08093743	      0.99625030	     12.52336405	     -6.15285792	      0.00000000	      0.00000000	     58.56112758	     -1.26709657	      5.57829729	     78.27022901	      1.36607320	    -32.68883288	     -6.51943271	      0.00000000	      0.00000000	    -39.31147144	     -3.05607863	      4.84691619	     46.34499772	    -23.47037204	     30.89471152	     74.57473922	     51.58717293	      0.00000000	      0.00000000	     57.41844237	    -16.50855334	     43.26292049	     61.23572290	     50.51053287	      0.00000000	      0.00000000
      5.01000000	    -32.44222839	      4.07859054	     -3.07041633	      0.31229870	      1.03752931	     -0.19801374	      0.00000000	      0.50000000	      0.00000000	      0.25000000	     63.63943618	     -5.53567187	      2.10184075	     54.57536942	      0.95251989	     11.81948459	     -6.34061999	      0.00000000	      0.00000000	     59.62066650	     -0.69055182	      6.17611797	     80.80672299	      1.41034337	    -32.10675378	     -7.11912868	      0.00000000	      0.00000000	    -39.30311538	     -2.43331010	      4.13821910	     45.78767546	    -22.88628346	     30.67356869	     74.51455598	     51.55670663	      0.00000000	      0.00000000	     57.51557226	    -16.78281203	     43.63590636	     61.03850208	     50.51999851	      0.00000000	      0.00000000
      5.01500000	    -32.36150308	      3.87615722	     -2.06196211	      0.31258316	      1.03566994	     -0.19784596	      0.00000000	      0.50000000	      0.00000000	      0.25000000	     61.71489722	     -5.90558938	      1.81621767	     52.06287256	      0.90866854	     10.56145610	     -7.65694379	      0.00000000	      0.00000000	     61.05611597	     -0.15953243	      6.76305456	     83.40042140	      1.45561195	    -31.38031269	     -7.20707743	      0.00000000	      0.00000000	    -38.93616844	     -1.78508446	      3.29321527	     45.14578770	    -20.94794567	     28.72194442	     73.44608433	     51.18685272	      0.00000000	      0.00000000	     58.05919256	    -17.80369168	     45.36297630	     60.70064487	     50.66619013	      0.00000000	      0.00000000
      5.02000000	    -32.10047068	      3.60618313	     -0.95228682	      0.31287958	      1.03390841	     -0.19828361	      0.00000000	      0.50000000	      0.00000000	      0.25000000	     59.60310901	     -6.42264915	      1.25418830	     49.65316567	      0.86661123	      9.75919679	     -7.99106574	      0.00000000	      0.00000000	     62.38111587	      0.52525793	      7.46473516	     86.06084258	      1.50204506	    -30.59222203	     -7.49944679	      0.00000000	      0.00000000	    -38.78902919	     -0.94691848	      2.52380092	     44.75675398	    -20.28273099	     28.25258449	     73.30167482	     51.11391935	      0.00000000	      0.00000000	     58.24277321	    -18.09855747	     45.97764315	     60.41922336	     50.68441185	      0.00000000	      0.00000000
      5.02500000	    -31.91615734	      3.50218463	     -0.16611499	      0.31286576	      1.03204977	     -0.19771761	      0.00000000	      0.50000000	      0.00000000	      0.25000000	     57.62531565	     -6.57242396	      1.19639296	     47.19477805	      0.82370427	      8.33722670	     -8.99276247	      0.00000000	      0.00000000	     63.79010691	      0.90891423	      7.90198595	     88.67526412	      1.54767532	    -29.39464479	     -7.18268405	      0.00000000	      0.00000000	    -38.52967231	     -0.59306339	      1.85523270	     44.18919774	    -18.49188069	     26.25926677	     72.13045453	     50.73924038	      0.00000000	      0.00000000	     59.27242376	    -19.01968303	     48.77369436	     59.88336116	     50.91516322	      0.00000000	      0.00000000
